# xmcd
#
# Track frame offsets:
#	150
#	16822
#	33905
#	48465
#	66590
#	83995
#	110590
#	130847
#	150512
#	167010
#	182807
#	197430
#	212822
#
# Disc length: 3080 seconds
#
# Revision: 3
# Processed by: cddbd v1.5.2PL0 Copyright (c) Steve Scherf et al.
# Submitted via: EasyCDDAExtractor 15.3.0.1
#
DISCID=ad0c060d
DTITLE=Daniela Romo - Amada Mas Que Nunca
DYEAR=1991
DGENRE=Latin
TTITLE0=Amada Mas Que Nunca
TTITLE1=Ruleta Rusa
TTITLE2=Nadie Entiende
TTITLE3=Te Comparo
TTITLE4=Añicos
TTITLE5=Un Pretexto
TTITLE6=Todo, Todo, Todo
TTITLE7=Duele
TTITLE8=En Todo Momento Solo Tuya
TTITLE9=Te Olvidare
TTITLE10=Una Herida En El Alma
TTITLE11=Tampoco Fuiste Tu
TTITLE12=Diselo
EXTD=
EXTT0=
EXTT1=
EXTT2=
EXTT3=
EXTT4=
EXTT5=
EXTT6=
EXTT7=
EXTT8=
EXTT9=
EXTT10=
EXTT11=
EXTT12=
PLAYORDER=
